<svg width="36" height="44" viewBox="0 0 36 44" fill="none" xmlns="http://www.w3.org/2000/svg">
<g id="24 / security / shield-lock">
<path id="icon" fill-rule="evenodd" clip-rule="evenodd" d="M0 27.9817C0 33.2991 5.99609 38.6289 17.9883 43.9713C29.9804 38.6414 35.9765 33.3116 35.9765 27.9817C35.9765 27.22 35.9799 25.5927 35.9842 23.5793L35.9842 23.574V23.5715C35.9966 17.6601 36.0159 8.42891 35.9765 7.99478C35.9765 6.4606 35.3877 6.10404 33.7581 5.11724L33.7581 5.11721C33.2647 4.81844 32.6759 4.46189 31.9791 3.99739C28.9811 1.9987 23.9749 0 17.9883 0C11.1192 0 4.32077 3.78181 3.99739 3.99739C3.30062 4.4619 2.71181 4.81846 2.21841 5.11724C0.588813 6.10404 0 6.4606 0 7.99478V27.9817ZM31.9828 25.4927C31.9803 26.7501 31.9791 27.5214 31.9791 27.9817C31.9791 31.0082 27.5264 35.1245 17.9901 39.5782C8.45271 35.1146 3.99739 30.9967 3.99739 27.9817V8.72098L4.25287 8.56243L4.25289 8.56241L4.25305 8.56231L4.25321 8.56222L4.25324 8.5622C4.8995 8.16127 5.74163 7.63883 6.21475 7.32342C8.05202 6.09857 13.6673 3.99739 17.9883 3.99739C22.5057 3.99739 26.8111 5.35634 29.7618 7.32342C30.235 7.6389 31.0774 8.1615 31.7237 8.56246L31.9983 8.73287C32.0026 9.91716 32.0046 13.7463 31.9972 18.2077C31.9955 19.2419 31.9934 20.3258 31.9909 21.5888L31.9828 25.4927ZM23.9843 15.9896C26.192 15.9896 27.9817 17.7793 27.9817 19.987V27.9817C27.9817 30.1894 26.192 31.9791 23.9843 31.9791H11.9922C9.78448 31.9791 7.99478 30.1894 7.99478 27.9817V19.987C7.99478 17.7793 9.78448 15.9896 11.9922 15.9896V11.9922C11.9922 8.68063 14.6767 5.99609 17.9883 5.99609C21.2998 5.99609 23.9843 8.68063 23.9843 11.9922V15.9896ZM19.987 11.9922V15.9896H15.9896V11.9922C15.9896 10.8883 16.8844 9.99348 17.9883 9.99348C19.0921 9.99348 19.987 10.8883 19.987 11.9922ZM11.9922 27.9817V19.987H23.9843V27.9817H11.9922ZM15.9896 23.9843C15.9896 25.0882 16.8844 25.983 17.9883 25.983C19.0921 25.983 19.987 25.0882 19.987 23.9843C19.987 22.8805 19.0921 21.9857 17.9883 21.9857C16.8844 21.9857 15.9896 22.8805 15.9896 23.9843Z" fill="#4FC2A0"/>
</g>
</svg>