<svg width="36" height="36" viewBox="0 0 36 36" fill="none" xmlns="http://www.w3.org/2000/svg">
<path fill-rule="evenodd" clip-rule="evenodd" d="M28.8001 3.6001C26.8129 3.6001 25.2001 5.2129 25.2001 7.2001C25.2001 9.1873 26.8129 10.8001 28.8001 10.8001C30.7873 10.8001 32.4001 9.1873 32.4001 7.2001C32.4001 5.2129 30.7873 3.6001 28.8001 3.6001ZM21.6001 12.6001C21.6001 14.5873 19.9873 16.2001 18.0001 16.2001C16.0129 16.2001 14.4001 14.5873 14.4001 12.6001C14.4001 10.6129 16.0129 9.0001 18.0001 9.0001C19.9873 9.0001 21.6001 10.6129 21.6001 12.6001ZM23.4001 19.8001C23.4001 17.8129 25.0129 16.2001 27.0001 16.2001C28.9873 16.2001 30.6001 17.8129 30.6001 19.8001C30.6001 21.7873 28.9873 23.4001 27.0001 23.4001C25.0129 23.4001 23.4001 21.7873 23.4001 19.8001ZM12.8989 23.4001C13.9771 26.6527 17.9893 28.8001 23.4001 28.8001C24.3937 28.8001 25.2001 29.6047 25.2001 30.6001C25.2001 31.5955 24.3937 32.4001 23.4001 32.4001H12.6001C12.4525 32.4001 12.3067 32.3821 12.1627 32.3461L4.9627 30.5461C4.1617 30.3445 3.6001 29.6263 3.6001 28.8001V23.4001C3.6001 22.6243 4.0951 21.9367 4.8313 21.6937L10.2313 19.8937C10.4023 19.8343 10.5805 19.8127 10.7605 19.8091C10.7657 19.8084 10.7708 19.8067 10.7761 19.805C10.7837 19.8026 10.7916 19.8001 10.8001 19.8001H16.2001C17.1937 19.8001 18.0001 20.6047 18.0001 21.6001C18.0001 22.5955 17.1937 23.4001 16.2001 23.4001H12.8989Z" fill="#31373D"/>
<mask id="mask0" mask-type="alpha" maskUnits="userSpaceOnUse" x="3" y="3" width="30" height="30">
<path fill-rule="evenodd" clip-rule="evenodd" d="M28.8001 3.6001C26.8129 3.6001 25.2001 5.2129 25.2001 7.2001C25.2001 9.1873 26.8129 10.8001 28.8001 10.8001C30.7873 10.8001 32.4001 9.1873 32.4001 7.2001C32.4001 5.2129 30.7873 3.6001 28.8001 3.6001ZM21.6001 12.6001C21.6001 14.5873 19.9873 16.2001 18.0001 16.2001C16.0129 16.2001 14.4001 14.5873 14.4001 12.6001C14.4001 10.6129 16.0129 9.0001 18.0001 9.0001C19.9873 9.0001 21.6001 10.6129 21.6001 12.6001ZM23.4001 19.8001C23.4001 17.8129 25.0129 16.2001 27.0001 16.2001C28.9873 16.2001 30.6001 17.8129 30.6001 19.8001C30.6001 21.7873 28.9873 23.4001 27.0001 23.4001C25.0129 23.4001 23.4001 21.7873 23.4001 19.8001ZM12.8989 23.4001C13.9771 26.6527 17.9893 28.8001 23.4001 28.8001C24.3937 28.8001 25.2001 29.6047 25.2001 30.6001C25.2001 31.5955 24.3937 32.4001 23.4001 32.4001H12.6001C12.4525 32.4001 12.3067 32.3821 12.1627 32.3461L4.9627 30.5461C4.1617 30.3445 3.6001 29.6263 3.6001 28.8001V23.4001C3.6001 22.6243 4.0951 21.9367 4.8313 21.6937L10.2313 19.8937C10.4023 19.8343 10.5805 19.8127 10.7605 19.8091C10.7657 19.8084 10.7708 19.8067 10.7761 19.805C10.7837 19.8026 10.7916 19.8001 10.8001 19.8001H16.2001C17.1937 19.8001 18.0001 20.6047 18.0001 21.6001C18.0001 22.5955 17.1937 23.4001 16.2001 23.4001H12.8989Z" fill="white"/>
</mask>
<g mask="url(#mask0)">
<rect width="37.8" height="37.8" fill="#4FC2A0"/>
</g>
</svg>