<svg xmlns="http://www.w3.org/2000/svg" width="331.99" height="97.65" viewBox="0 0 331.99 97.65"><title>svg-Asset 1</title><path d="M73.82,97.65V92.23a9.26,9.26,0,0,0,8-4.63l4.7,2.71A14.72,14.72,0,0,1,73.82,97.65Z"/><path d="M18.24,76.23l-4.69-2.71L36.72,33.38a14.71,14.71,0,0,1,12.7-7.33H95.77v5.42H49.42a9.28,9.28,0,0,0-8,4.62Z"/><path d="M95.51,74.75,90.83,72l11-18.93a.33.33,0,0,0-.29-.51H63.78a9.28,9.28,0,0,0-8,4.63L45.64,74.74,41,72,51.07,54.5a14.75,14.75,0,0,1,12.71-7.34h37.79a5.77,5.77,0,0,1,5,8.66Z"/><path d="M53.83,97.65H34.38a14.7,14.7,0,0,1-12.7-7.34L2,56.16A14.72,14.72,0,0,1,2,41.49L21.68,7.34A14.7,14.7,0,0,1,34.38,0H73.82A14.72,14.72,0,0,1,86.53,7.34L81.83,10a9.27,9.27,0,0,0-8-4.62H34.38a9.28,9.28,0,0,0-8,4.62L6.65,44.2a9.26,9.26,0,0,0,0,9.25L26.37,87.6a9.27,9.27,0,0,0,8,4.63H53.83a2.58,2.58,0,0,0,2.23-1.29L80.7,48.51l4.69,2.72L60.75,93.66A8,8,0,0,1,53.83,97.65Z"/><path d="M167.5,28.59v5.2H148.07V51.14h-5.86V10.57H171.9v5.2H148.07V28.59Z"/><path d="M194.31,23v5.19h-.24a7.67,7.67,0,0,0-4.46-1.35c-5.5,0-8.13,3.79-8.13,11.24v13h-5.19V22.55h4.4l.12,4.58h.12c1.71-3.42,4.71-5.19,9-5.19A8.12,8.12,0,0,1,194.31,23Z"/><path d="M201.82,38.55c.74,5.32,5,8.55,11.49,8.55a15,15,0,0,0,10.57-3.9h.24v5.25c-2.56,2.08-6.47,3.3-10.93,3.3-10.08,0-16.62-5.93-16.62-14.91,0-8.73,6.17-14.9,14.91-14.9S226,27.37,226,35.68v2.87Zm0-4.34h19.31c-.74-4.64-4.4-7.63-9.59-7.63A9.59,9.59,0,0,0,201.82,34.21Z"/><path d="M238.11,13.57a3.43,3.43,0,0,1-6.85,0,3.43,3.43,0,0,1,6.85,0Zm-6,9h5.19V51.14h-5.19Z"/><path d="M273.54,48.88c0,9-5.75,14.47-15.46,14.47-5,0-9.29-1.4-11.91-3.78V54.13h.24c2.32,2.87,6.42,4.58,11.12,4.58,6.9,0,10.81-3.6,10.81-10.14v-1.4h-.12c-2.26,2.75-5.8,4.33-10.45,4.33-8.3,0-14.29-6.11-14.29-14.78s6-14.78,14.29-14.78c5,0,8.92,1.95,11.06,5.19H269l.19-4.58h4.4Zm-5-12.16c0-6-4.1-10.14-9.9-10.14s-9.9,4.09-9.9,10.14,4,10.14,9.9,10.14S268.53,42.77,268.53,36.72Z"/><path d="M308.23,34.52V51.14H303v-16c0-5.37-2.93-8.55-7.76-8.55-5.31,0-8.49,3.66-8.49,9.71V51.14H281.6V8.37h5.19V26.09h.12c2-2.69,5.38-4.15,9.59-4.15C303.77,21.94,308.23,26.7,308.23,34.52Z"/><path d="M332,50.71a11.18,11.18,0,0,1-5.19,1c-6,0-9.35-3.55-9.35-10V27.07H312.2V22.55h5.37l.8-7.76h4.28v7.76h9.22v4.52h-9.22v14.6c0,3.42,1.83,5.43,4.88,5.43a5.53,5.53,0,0,0,4.22-1.64H332Z"/><path d="M154.13,88h-6.64V64.13h-8.88V58.21H163v5.92h-8.85Z"/><path d="M179.27,67.28V73h-.22a5.7,5.7,0,0,0-3.32-1c-3.59,0-5.21,2.2-5.21,6.91V88h-5.88V66.92h4.89l.27,3.27h.09c1.17-2.46,3.23-3.72,6.29-3.72A5.17,5.17,0,0,1,179.27,67.28Z"/><path d="M197.05,88l-.23-3h-.09a7.07,7.07,0,0,1-6.55,3.46c-5.16,0-8.21-3.37-8.21-9.07V66.92h5.88v11.8c0,2.92,1.43,4.53,3.9,4.53,2.69,0,4.31-1.84,4.31-5.11V66.92h5.88V88Z"/><path d="M221.65,67.82v5.61h-.23c-1.39-1.4-3.54-2.11-6.28-2.11-2.29,0-3.41.67-3.41,2,0,.94.72,1.35,3.5,1.53,5.61.35,7.81,2.33,7.81,6.77s-3.23,6.87-8.66,6.87c-3.51,0-6.2-.63-8-1.89V80.92h.27c1.66,1.79,4.17,2.69,7.45,2.69,2.28,0,3.41-.67,3.41-2,0-1.12-.9-1.57-3.86-1.84-5.34-.49-7.45-2.11-7.45-6.28s3.45-7,8.79-7A15.15,15.15,0,0,1,221.65,67.82Z"/><path d="M239.87,87.74a9.51,9.51,0,0,1-4.13.72c-5.11,0-7.85-2.78-7.85-8.12V71.9h-3.5v-5h3.68l.76-5.93h4.94v5.93h6.06v5h-6.06v8.21c0,2,1.07,3.14,2.91,3.14a3.82,3.82,0,0,0,3-1.21h.22Z"/></svg>